<svg viewBox="0 0 800 200" xmlns="http://www.w3.org/2000/svg">
  <!-- Sword Handle -->
  <path d="M 100 90 L 180 90 L 180 110 L 100 110 Z" fill="#C0A080"/>
  <circle cx="140" cy="100" r="15" fill="#FFD700"/>
  <path d="M 95 85 L 105 85 L 105 115 L 95 115 Z" fill="#8B4513"/>
  
  <!-- Guard -->
  <path d="M 180 80 L 200 60 L 220 80 L 220 120 L 200 140 L 180 120 Z" fill="#B8860B"/>
  <circle cx="200" cy="100" r="10" fill="#FFD700"/>
  
  <!-- Blade -->
  <path d="M 220 95 L 700 75 L 750 100 L 700 125 L 220 105 Z" fill="#C0C0C0"/>
  
  <!-- Decorative Patterns -->
  <path d="M 250 85 L 680 70 M 250 115 L 680 130" stroke="#808080" stroke-width="2" fill="none"/>
  <path d="M 300 82 L 650 72 M 300 118 L 650 128" stroke="#808080" stroke-width="1" fill="none"/>
  
  <!-- Sanskrit Symbols -->
  <circle cx="350" cy="100" r="8" fill="none" stroke="#4A4A4A" stroke-width="1"/>
  <circle cx="450" cy="100" r="8" fill="none" stroke="#4A4A4A" stroke-width="1"/>
  <circle cx="550" cy="100" r="8" fill="none" stroke="#4A4A4A" stroke-width="1"/>
  
  <!-- Stars representing his connection to celestial twins -->
  <path d="M400,95 L403,102 L410,102 L405,107 L407,114 L400,110 L393,114 L395,107 L390,102 L397,102 Z" fill="#FFD700"/>
  <path d="M500,95 L503,102 L510,102 L505,107 L507,114 L500,110 L493,114 L495,107 L490,102 L497,102 Z" fill="#FFD700"/>
  
</svg>